<svg width="126" height="32" viewBox="0 0 126 32" fill="none" xmlns="http://www.w3.org/2000/svg">
<path d="M36.411 26.622H53.8498V31.2869H30.8359V0.183594H36.411V26.6239V26.622Z" fill="#F2EDE4"></path>
<path d="M54.3652 15.7352C54.3652 6.61219 60.6815 0.181641 69.6784 0.181641C78.6753 0.181641 84.9916 6.61219 84.9916 15.7352C84.9916 24.8582 78.6753 31.2869 69.6784 31.2869C60.6815 31.2869 54.3652 24.8563 54.3652 15.7352ZM79.2499 15.7352C79.2499 9.22998 75.3064 4.66847 69.6784 4.66847C64.0504 4.66847 60.1069 9.22998 60.1069 15.7352C60.1069 22.2404 64.0504 26.802 69.6784 26.802C75.3064 26.802 79.2499 22.2404 79.2499 15.7352Z" fill="#F2EDE4"></path>
<path d="M98.0014 20.2853L91.0341 31.2888H84.4648L94.7364 15.1148L85.261 0.183594H91.791L98.3994 10.5648L105.008 0.183594H111.538L101.664 15.7372L111.538 31.2907H104.969L98.0014 20.2872V20.2853Z" fill="#F2EDE4"></path>
<path d="M120.295 31.2892C123.26 31.2892 125.664 28.9418 125.664 26.046C125.664 23.1502 123.26 20.8027 120.295 20.8027C117.33 20.8027 114.926 23.1502 114.926 26.046C114.926 28.9418 117.33 31.2892 120.295 31.2892Z" fill="#C90D28"></path>
<path d="M24.4395 15.3353C26.2828 13.7707 27.1633 11.58 27.1633 8.84152C27.1633 3.16931 23.1982 0 16.1054 0H0V7.08164C0 8.99281 1.58642 10.542 3.54346 10.542H4.80632V4.69365H16.1034C19.3488 4.69365 21.151 6.17968 21.151 8.84152C21.151 11.5034 19.3488 13.0277 16.1034 13.0277H11.2167C4.00625 13.0277 0 16.6662 0 23.2001V31.2986H16.9055C23.7159 31.2986 27.9634 27.8555 27.9634 22.1833C27.9634 19.2495 26.8417 16.9017 24.4375 15.3372L24.4395 15.3353ZM16.9074 26.6031H5.61032V23.2001C5.61032 20.1745 8.12231 17.7233 11.2187 17.7233H16.9074C20.1528 17.7233 21.955 19.328 21.955 22.1833C21.955 25.0385 20.1528 26.605 16.9074 26.605V26.6031Z" fill="#F2EDE4"></path>
</svg>